<svg xmlns="http://www.w3.org/2000/svg" style="display:none">
  <!-- Ícono WhatsApp (contorno) — referenciado con <use href="img/wa.svg#wa"> desde las páginas -->
  <symbol id="wa" viewBox="0 0 24 24">
    <path d="M12 2a10 10 0 00-8.5 15.3L2 22l4.8-1.5A10 10 0 1012 2zm0 18a8 8 0 01-4.1-1.1l-.3-.2-2.8.9.9-2.7-.2-.3A8 8 0 1112 20zm4.4-6c-.2-.1-1.4-.7-1.7-.8-.2-.1-.4-.1-.5.1l-.7.9c-.1.2-.3.2-.5.1a6.5 6.5 0 01-3.2-2.8c-.1-.2 0-.4.1-.5l.4-.5c.1-.2.1-.3 0-.5l-.7-1.7c-.2-.4-.4-.4-.5-.4h-.5a1 1 0 00-.7.3c-.2.3-.9.9-.9 2.1s.9 2.5 1 2.6c.1.2 1.8 2.8 4.4 3.9 1.6.7 2.2.7 3 .6.5-.1 1.4-.6 1.6-1.1.2-.6.2-1 .1-1.1z"/>
  </symbol>
</svg>
